<?xml version="1.0" encoding="UTF-8"?>
<svg version="1.1" xmlns="http://www.w3.org/2000/svg" width="1760" height="620">
<path d="M0 0 C5.79163987 4.31005758 7.15783699 10.10259442 9.08203125 16.72265625 C13.49677862 31.75944281 13.49677862 31.75944281 24 43 C26.51229605 44.32698993 29.08610122 45.48452255 31.6875 46.625 C38.74807692 49.74807692 38.74807692 49.74807692 41 52 C41.68138017 58.92736504 41.68138017 58.92736504 39.39453125 62.52734375 C36.64876466 65.36269489 33.82341941 67.05902657 30.3125 68.75 C29.64347656 69.08 28.97445313 69.41 28.28515625 69.75 C17.8872948 74.69082778 6.87634015 78.2739428 -4 82 C-4.06058594 83.30195313 -4.12117188 84.60390625 -4.18359375 85.9453125 C-4.26804562 87.67188399 -4.35269126 89.398446 -4.4375 91.125 C-4.47681641 91.9809375 -4.51613281 92.836875 -4.55664062 93.71875 C-4.78156402 98.21721792 -5.13540883 102.56806207 -6 107 C-4.83984375 106.45730469 -3.6796875 105.91460937 -2.484375 105.35546875 C23.88253431 93.20309857 23.88253431 93.20309857 37.5625 97.125 C45.20884635 100.00739234 50.14255941 104.27317037 53.9921875 111.4609375 C57.00242057 119.04485802 57.32082615 125.98291715 57.25 134.0625 C57.24178223 135.21081299 57.23356445 136.35912598 57.22509766 137.54223633 C56.34367954 206.32602096 56.34367954 206.32602096 40 224 C35.78461398 226.59212245 31.57002279 226.59273413 26.78125 225.48828125 C26.1934375 225.32714844 25.605625 225.16601562 25 225 C25.2165625 225.88751953 25.2165625 225.88751953 25.4375 226.79296875 C25.623125 227.58316406 25.80875 228.37335938 26 229.1875 C26.185625 229.96480469 26.37125 230.74210938 26.5625 231.54296875 C27.0146354 234.08219346 27.02998784 236.42666848 27 239 C27.87615967 238.76418213 28.75231934 238.52836426 29.6550293 238.28540039 C38.92870335 235.79967958 48.21508588 233.36956164 57.52368164 231.01782227 C59.04494329 230.63211145 60.5654615 230.2434561 62.08520508 229.85180664 C70.53064221 227.67659073 78.98580128 225.68970497 87.57421875 224.16015625 C88.64335258 223.95851112 88.64335258 223.95851112 89.73408508 223.75279236 C96.15240109 222.67676718 102.52787411 222.33509889 108.0625 226.0625 C110.24509823 229.37160055 110.6856166 231.18744998 110.421875 235.0703125 C109.73577153 238.20860059 108.3350651 239.85426451 106 242 C102.29319787 243.75043434 98.72655936 244.50360625 94.6875 245.125 C93.61886719 245.29257812 92.55023437 245.46015625 91.44921875 245.6328125 C90.64097656 245.75398437 89.83273437 245.87515625 89 246 C89 245.34 89 244.68 89 244 C68.5014167 246.32938447 48.85372633 251.53208849 29 257 C28.89547557 262.24944908 28.9868399 267.41792807 29.46875 272.6484375 C38.13040972 372.86852862 38.13040972 372.86852862 18.71484375 400.08984375 C14.80864537 404.44093944 9.53015055 407.64169853 3.65234375 408.23828125 C-8.47948804 408.56994284 -16.13766911 403.95191487 -25 396 C-25.75152344 395.33097656 -26.50304688 394.66195313 -27.27734375 393.97265625 C-33.90089807 387.7216041 -38.95119893 380.52497801 -44 373 C-44.6909375 371.99324219 -45.381875 370.98648437 -46.09375 369.94921875 C-50.41880331 363.33291697 -53.73241322 356.4907881 -56.875 349.25 C-57.4474646 347.93696899 -57.4474646 347.93696899 -58.03149414 346.59741211 C-60.33696588 341.1149827 -61.87663475 335.84149931 -63 330 C-59.90617641 333.85105314 -56.84430011 337.72506329 -53.8125 341.625 C-53.36197266 342.19734375 -52.91144531 342.7696875 -52.44726562 343.359375 C-50.47761565 345.89895368 -49.02452624 347.92642129 -48 351 C-47.34 351 -46.68 351 -46 351 C-44.37890625 352.64453125 -44.37890625 352.64453125 -42.5625 354.8125 C-40.02660668 357.82463265 -40.02660668 357.82463265 -37.27734375 360.63671875 C-36 362 -36 362 -36 364 C-35.19949219 364.31904297 -35.19949219 364.31904297 -34.3828125 364.64453125 C-31.09818347 366.51300055 -28.5760911 369.08264919 -25.875 371.6875 C-14.85753028 382.23454568 -14.85753028 382.23454568 -0.875 387.4375 C2.10502099 387.30106743 2.10502099 387.30106743 3.6875 385.0625 C12.36731424 364.80960011 11.16934727 341.73424583 11.13037109 320.0949707 C11.12505759 316.60037806 11.13032066 313.10591665 11.13671875 309.61132812 C11.14073826 294.38582159 10.73529587 279.20748256 10 264 C-20.14583786 274.07252201 -20.14583786 274.07252201 -49.80078125 285.484375 C-56.69600137 288.31236324 -63.65766514 290.95712576 -70.63327026 293.57904053 C-72.01548657 294.09879898 -73.39712653 294.62009344 -74.77810669 295.14312744 C-103.12737027 305.87408836 -103.12737027 305.87408836 -111.25 302.75 C-114.87305239 300.44442121 -116.58981625 298.77746294 -117.5625 294.5625 C-116.72911788 290.76598144 -114.087979 289.08752541 -111 287 C-108.52612662 285.92665816 -106.22426468 285.04042538 -103.671875 284.23828125 C-102.97418503 284.00620972 -102.27649506 283.77413818 -101.55766296 283.53503418 C-100.06584181 283.03983239 -98.57209538 282.55039876 -97.07662964 282.0663147 C-93.11050478 280.78131293 -89.15931445 279.45184711 -85.20703125 278.125 C-84.41615616 277.86048538 -83.62528107 277.59597076 -82.81044006 277.32344055 C-75.93994286 275.01217304 -69.18290256 272.46845961 -62.4375 269.8125 C-38.95987106 260.61983557 -14.92743763 252.92744272 9 245 C9.01981934 244.39526855 9.03963867 243.79053711 9.06005859 243.16748047 C9.15586299 240.40291491 9.26531555 237.63904826 9.375 234.875 C9.4059375 233.92367187 9.436875 232.97234375 9.46875 231.9921875 C9.86208447 222.55216028 9.86208447 222.55216028 12 218 C15.21302289 215.85798474 16.26709281 215.34674124 20 216 C21.6875 218.4375 21.6875 218.4375 23 221 C23.66 221.33 24.32 221.66 25 222 C22.64543677 216.43282467 22.64543677 216.43282467 20 211 C21.65 211 23.3 211 25 211 C32.91455005 186.28361186 45.59339338 143.62816966 35.0234375 118.609375 C33.0828457 115.55775737 31.48476485 114.87119121 28 114 C19.31200766 113.57202008 11.84803425 116.60412103 4 120 C2.60201172 120.60328125 2.60201172 120.60328125 1.17578125 121.21875 C-0.89188875 122.12761593 -2.95011169 123.05186045 -5 124 C-5.12109311 131.07721931 -4.85373239 137.97195301 -4 145 C-3.443125 144.71125 -2.88625 144.4225 -2.3125 144.125 C3.09795187 141.49288828 6.98079316 140.19743909 13 141 C16.48022671 142.9252318 17.67785808 144.17674843 19.125 147.875 C18.95580246 152.10493852 16.99722171 154.23194576 14 157 C11.38097789 158.69522158 8.64494926 160.01290563 5.8125 161.3125 C5.08869141 161.65861328 4.36488281 162.00472656 3.61914062 162.36132812 C1.75160733 163.25253238 -0.12368329 164.12743984 -2 165 C-2.66 165.33 -3.32 165.66 -4 166 C-4.69337792 169.0399648 -4.69337792 169.0399648 -5.125 172.5625 C-5.29257813 173.76003906 -5.46015625 174.95757812 -5.6328125 176.19140625 C-5.75398438 177.11824219 -5.87515625 178.04507813 -6 179 C-5.21496094 178.62746094 -4.42992187 178.25492188 -3.62109375 177.87109375 C7.40996097 172.90373537 7.40996097 172.90373537 13 175 C15.61947644 177.41797825 16.7805279 179.02456844 17.5625 182.5 C16.71463773 186.26827676 14.98192 187.56577959 12 190 C9.06802845 191.8030255 6.04448692 193.39709065 3 195 C1.68459655 195.76586817 0.37178677 196.53622142 -0.9375 197.3125 C-4 199 -4 199 -6 199 C-6.07516846 200.41478638 -6.07516846 200.41478638 -6.15185547 201.8581543 C-6.34261427 205.37161994 -6.54104682 208.88447985 -6.74462891 212.3972168 C-6.83102366 213.91494927 -6.91439435 215.43285714 -6.99462891 216.95092773 C-7.11077759 219.1383947 -7.2379421 221.32499122 -7.3671875 223.51171875 C-7.47716064 225.48338013 -7.47716064 225.48338013 -7.58935547 227.49487305 C-8.05313784 231.45356715 -8.95207314 234.45568673 -11.1875 237.75 C-14.02276812 239.70535732 -16.60930653 239.82154245 -20 240 C-22.74721062 239.08769929 -23.76495646 238.39173923 -25.265625 235.890625 C-28.14951254 228.15448223 -28.43121941 221.2051472 -28 213 C-28.64066406 213.30035156 -29.28132813 213.60070312 -29.94140625 213.91015625 C-35.30719754 216.26918521 -39.16191867 217.86818603 -45 216 C-48.42193078 213.20842489 -49.80172003 211.23924981 -50.5 206.875 C-49.77370732 201.24623173 -47.24664924 198.62720284 -43 195 C-38.77401106 192.12348652 -34.43102289 189.55083209 -30 187 C-26.70077803 184.80051868 -26.57190099 184.49675855 -25.8125 180.875 C-25.544375 179.59625 -25.27625 178.3175 -25 177 C-25.97839844 177.37253906 -26.95679688 177.74507812 -27.96484375 178.12890625 C-40.12330802 182.57655693 -40.12330802 182.57655693 -47.06640625 181.1328125 C-50.68495456 180.88426575 -53.08660446 183.03791729 -56 185 C-56.66 185 -57.32 185 -58 185 C-59.67550404 192.72440586 -60.285459 200.04406709 -60.1875 207.9375 C-60.18685547 208.95134766 -60.18621094 209.96519531 -60.18554688 211.00976562 C-60.16063412 215.19787711 -60.10998275 218.94842923 -59 223 C-58.44626037 228.30798986 -58.11288332 232.54054998 -60.9375 237.1875 C-65.08162613 239.64014607 -68.2988384 239.89749449 -73 239 C-77.36771438 236.7211925 -78.81491981 233.83778005 -80.421875 229.390625 C-86.50904867 204.21933928 -85.94619199 158.32150898 -73 135 C-70.65696453 131.44813731 -68.16743942 128.3443353 -64 127 C-62.68 127 -61.36 127 -60 127 C-59.63988863 135.50262969 -60.7472283 143.61090382 -62 152 C-61.67128906 151.46632812 -61.34257813 150.93265625 -61.00390625 150.3828125 C-53.06607571 137.94902916 -42.79485405 127.12127036 -29.875 119.9375 C-25.58002671 117.65347842 -25.58002671 117.65347842 -23.17578125 113.72265625 C-23.10688805 111.26201545 -23.10688805 111.26201545 -24 108 C-24.94875 108.515625 -25.8975 109.03125 -26.875 109.5625 C-27.90625 110.036875 -28.9375 110.51125 -30 111 C-30.66 110.67 -31.32 110.34 -32 110 C-30.865625 109.484375 -29.73125 108.96875 -28.5625 108.4375 C-26.49657671 107.16179815 -26.49657671 107.16179815 -25 105 C-24.28458144 101.05020412 -24.10676011 97.30252888 -24.0703125 93.30078125 C-24 90 -24 90 -23 88 C-23.66418945 88.20157715 -24.32837891 88.4031543 -25.01269531 88.61083984 C-28.0895463 89.53987168 -31.16970209 90.45746445 -34.25 91.375 C-35.29414062 91.69210938 -36.33828125 92.00921875 -37.4140625 92.3359375 C-65.91220631 100.77983196 -65.91220631 100.77983196 -77.625 95.25 C-80.47969305 93.50648855 -83.02938567 91.74172428 -85 89 C-84.9375 86.875 -84.9375 86.875 -84 85 C-80.97511356 82.98340904 -79.61621238 82.60888448 -76.125 82.10546875 C-75.14909912 81.95730713 -74.17319824 81.80914551 -73.16772461 81.65649414 C-71.59970093 81.42434204 -71.59970093 81.42434204 -70 81.1875 C-62.21844383 79.96061245 -54.55362081 78.58763743 -46.9375 76.5625 C-46.25107422 76.38162842 -45.56464844 76.20075684 -44.85742188 76.0144043 C-37.47846876 73.98172789 -30.24766579 71.4516707 -23 69 C-22.92483154 67.998479 -22.84966309 66.99695801 -22.7722168 65.96508789 C-22.48435726 62.16036454 -22.18520407 58.35659157 -21.88305664 54.55297852 C-21.75509351 52.92332566 -21.62997942 51.29344597 -21.50805664 49.66333008 C-20.85315057 40.93394424 -20.02578348 32.29576696 -18.515625 23.66796875 C-18.39543503 22.97905045 -18.27524506 22.29013214 -18.15141296 21.58033752 C-16.74395121 13.98883961 -14.58284129 6.58284129 -9 1 C-5.63633609 -0.1212213 -3.52465728 -0.42295887 0 0 Z M1 18 C-0.89825233 22.97161325 -1.5641396 27.64970918 -2.0703125 32.8984375 C-2.19924393 34.15087753 -2.19924393 34.15087753 -2.33078003 35.42861938 C-2.60192093 38.0768087 -2.8635976 40.72583349 -3.125 43.375 C-3.30796798 45.17844901 -3.49155521 46.98183532 -3.67578125 48.78515625 C-4.12435746 53.1894107 -4.56445236 57.59443883 -5 62 C-1.1950446 63.43680847 1.12934307 62.51815283 4.859375 61.12890625 C5.97441406 60.71962891 7.08945313 60.31035156 8.23828125 59.88867188 C9.97658203 59.2322168 9.97658203 59.2322168 11.75 58.5625 C12.92433594 58.12873047 14.09867188 57.69496094 15.30859375 57.24804688 C18.20945373 56.17496453 21.10621131 55.09197781 24 54 C24 53.01 24 52.02 24 51 C22.46400612 49.43847041 22.46400612 49.43847041 20.4375 47.9375 C12.59527745 41.28475036 8.40870977 33.43031947 4.95263672 23.9140625 C3.83622065 20.26427044 3.83622065 20.26427044 1 18 Z M-38 141 C-38.75539063 141.52722656 -39.51078125 142.05445313 -40.2890625 142.59765625 C-46.82873691 147.69130704 -50.25124245 154.77528182 -54 162 C-54.40476562 162.73863281 -54.80953125 163.47726563 -55.2265625 164.23828125 C-56.20099503 166.13715177 -56.20099503 166.13715177 -56 169 C-48.85865859 168.59075407 -43.01708039 165.52461968 -36.625 162.5 C-34.96791016 161.73236328 -34.96791016 161.73236328 -33.27734375 160.94921875 C-28.32033613 158.96632486 -28.32033613 158.96632486 -24 156 C-23.91286169 154.29227642 -23.89299993 152.58101351 -23.90234375 150.87109375 C-23.90556641 149.83662109 -23.90878906 148.80214844 -23.91210938 147.73632812 C-23.92048828 146.64771484 -23.92886719 145.55910156 -23.9375 144.4375 C-23.94201172 143.34501953 -23.94652344 142.25253906 -23.95117188 141.12695312 C-23.96300174 138.41791505 -23.97948457 135.70898401 -24 133 C-28.9273186 133 -34.10363377 138.24702587 -38 141 Z M-59 179 C-59.33 180.65 -59.66 182.3 -60 184 C-59.34 184 -58.68 184 -58 184 C-58 182.35 -58 180.7 -58 179 C-58.33 179 -58.66 179 -59 179 Z " fill="#000000" transform="translate(1234,63)"/>
<path d="M0 0 C3.95084877 3.52140869 6.14146794 5.83970392 6.5625 11.125 C6.37628356 24.0484209 -3.55880839 35.63596787 -11.44335938 45.1015625 C-14.33540106 48.62861961 -17.09188971 52.2618662 -19.875 55.875 C-24.37975631 61.69179736 -28.95934492 67.43664905 -33.625 73.125 C-50.66028892 91.32515011 -50.66028892 91.32515011 -59 113 C-55.51556925 116.85223177 -51.56466307 120.08738422 -47.5625 123.375 C-41.31458568 128.58947741 -35.95643824 133.74652989 -32 141 C-23.1786093 139.42795991 -14.63443748 137.04173269 -6.0062561 134.66110229 C9.48122653 130.40200416 25.01631498 126.46220664 40.6875 122.9375 C41.51268127 122.75009247 42.33786255 122.56268494 43.18804932 122.36959839 C76.97240544 114.72571333 76.97240544 114.72571333 86.9375 119.6875 C90.36789008 122.27779455 91.69402831 123.91883847 93 128 C93.22970648 133.283249 90.67126899 136.1428575 87.31396484 139.88671875 C82.8921681 143.92502563 77.56558678 146.38957111 72.25 149.0625 C70.00303227 150.21582235 67.75821654 151.37334746 65.515625 152.53515625 C64.42958984 153.09605957 63.34355469 153.65696289 62.22460938 154.23486328 C58.03352378 156.52904475 54.08169257 159.12017821 50.13574219 161.81030273 C49.43094727 162.20290283 48.72615234 162.59550293 48 163 C47.34 162.67 46.68 162.34 46 162 C47.33295015 160.81206989 48.66638699 159.6246859 50 158.4375 C50.82242187 157.70402344 51.64484375 156.97054687 52.4921875 156.21484375 C54.02671305 154.8595852 55.5713322 153.51551866 57.1328125 152.19140625 C61.89255774 148.15028921 66.0096739 143.80086109 70 139 C44.66531587 138.71670481 18.8338872 148.27427881 -5.34863281 154.99926758 C-6.27464294 155.25594711 -7.20065308 155.51262665 -8.15472412 155.77708435 C-9.89660111 156.26055139 -11.63774235 156.74668032 -13.37799072 157.23597717 C-17.56976764 158.39947797 -21.6836085 159.3862251 -26 160 C-25.73445313 160.77601563 -25.46890625 161.55203125 -25.1953125 162.3515625 C-24.66550781 163.97191406 -24.66550781 163.97191406 -24.125 165.625 C-23.77695312 166.66914063 -23.42890625 167.71328125 -23.0703125 168.7890625 C-19.95401961 179.9244058 -19.6234179 191.45241533 -19.6875 202.9375 C-19.68998749 203.65610199 -19.69247498 204.37470398 -19.69503784 205.11508179 C-19.84043903 232.46296744 -24.11704277 261.11638165 -36 286 C-36.28423828 286.61584961 -36.56847656 287.23169922 -36.86132812 287.86621094 C-42.58674166 300.13937062 -50.54268149 312.18460247 -63.2734375 318.046875 C-72.92802776 321.27703531 -79.83213138 320.20193978 -89 316 C-100.99635934 309.61152782 -110.50490441 298.71753194 -119.50390625 288.75 C-120.90389005 287.20760784 -122.33054346 285.68559773 -123.83984375 284.25 C-125 283 -125 283 -125 281 C-125.66 281 -126.32 281 -127 281 C-128.69140625 279.35546875 -128.69140625 279.35546875 -130.5625 277.1875 C-131.18253906 276.47980469 -131.80257812 275.77210938 -132.44140625 275.04296875 C-134 273 -134 273 -135 270 C-135.66 270 -136.32 270 -137 270 C-137 269.34 -137 268.68 -137 268 C-137.66 268 -138.32 268 -139 268 C-140.65625 266.35546875 -140.65625 266.35546875 -142.5 264.1875 C-143.1084375 263.47980469 -143.716875 262.77210938 -144.34375 262.04296875 C-146 260 -146 260 -148 257 C-144.11723614 257.58939077 -141.28908467 258.74603038 -137.89453125 260.703125 C-136.43261353 261.54568848 -136.43261353 261.54568848 -134.94116211 262.40527344 C-133.90870361 263.0140332 -132.87624512 263.62279297 -131.8125 264.25 C-130.74330322 264.87680664 -129.67410645 265.50361328 -128.57250977 266.14941406 C-119.6764301 271.44253162 -111.35687866 277.31206265 -103.06396484 283.48925781 C-99.68788135 285.96041995 -96.22955791 288.30270095 -92.75 290.625 C-92.15372803 291.02686523 -91.55745605 291.42873047 -90.94311523 291.84277344 C-83.06584971 297.09437057 -83.06584971 297.09437057 -74 299 C-68.52398024 297.71218349 -65.4998737 294.79479317 -62.4375 290.1875 C-61.25682519 288.14474517 -60.11254854 286.08064317 -59 284 C-58.42378906 282.95199219 -57.84757813 281.90398437 -57.25390625 280.82421875 C-48.15696167 262.93423643 -44.05297098 242.83371325 -42 223 C-41.80470703 221.16888672 -41.80470703 221.16888672 -41.60546875 219.30078125 C-40.46002611 206.6398219 -41.00572471 194.34108387 -42.28833008 181.72680664 C-42.78591086 176.78511607 -43.10931319 171.96691786 -43 167 C-54.28630059 169.51490609 -65.20923487 173.15614127 -76.1875 176.75 C-77.19520447 177.07913391 -78.20290894 177.40826782 -79.2411499 177.74737549 C-100.35277629 184.65846794 -121.227202 192.13340389 -142 200 C-142.90059143 200.34093689 -143.80118286 200.68187378 -144.72906494 201.03314209 C-165.75133468 209.00201573 -186.6708833 217.18944362 -207.43432617 225.81030273 C-217.51036224 229.9917136 -227.61373536 234.10009359 -237.75128174 238.13031006 C-239.38600632 238.78106134 -241.01979642 239.43416626 -242.65252686 240.08990479 C-276.85082941 253.81370066 -276.85082941 253.81370066 -289.08203125 249.0078125 C-292.03802614 247.4545606 -293.45525609 245.95516227 -295 243 C-295.62214724 238.7227377 -295.30952891 236.59612975 -293.3125 232.75 C-289.82402367 228.60154166 -287.00335254 227.0062797 -281.6875 226.3125 C-280.470625 226.209375 -279.25375 226.10625 -278 226 C-277.34 226.99 -276.68 227.98 -276 229 C-268.30969753 228.55986822 -262.13794453 226.39367143 -255.0625 223.4375 C-253.95277832 222.9842334 -252.84305664 222.5309668 -251.69970703 222.06396484 C-245.53830453 219.53006244 -239.43712765 216.88655478 -233.375 214.125 C-222.18270604 209.03154004 -210.65500312 204.75370396 -199.17324829 200.3662262 C-194.43765847 198.55551004 -189.71066876 196.72375947 -184.98828125 194.87890625 C-170.92546285 189.38959402 -156.82437657 184.05415405 -142.59765625 179 C-139.21901945 177.79931332 -135.85035145 176.57968078 -132.49609375 175.3125 C-120.42522286 170.7526977 -108.20015673 166.69539193 -95.95288086 162.64038086 C-81.59199379 157.88338912 -67.28791402 152.97174028 -53 148 C-57.34442048 142.43306374 -61.64469287 138.96210208 -67.6875 135.375 C-77.68283983 129.43044785 -77.68283983 129.43044785 -79.6875 122.6875 C-82.19806402 101.09664939 -64.39897536 82.04262655 -52 66 C-50.01962564 63.52545516 -48.00965773 61.07577743 -46 58.625 C-41.15543765 52.69677478 -36.809997 46.49290276 -32.5625 40.125 C-31.98306641 39.25697754 -31.40363281 38.38895508 -30.80664062 37.49462891 C-27.27523518 32.12866038 -24.03073211 26.66365384 -21 21 C-28.92291163 21.29408187 -35.4855376 23.93605293 -42.69793701 27.00341797 C-46.23309585 28.50492204 -49.78586947 29.96387285 -53.3359375 31.4296875 C-54.0587088 31.72929382 -54.7814801 32.02890015 -55.52615356 32.33758545 C-112.59077458 55.95003711 -112.59077458 55.95003711 -128.86328125 50.1328125 C-132.53476307 48.18632305 -134.48862924 45.85324723 -136 42 C-137.12597767 37.60215969 -136.73561155 34.41027242 -134.6328125 30.37890625 C-131.32932462 25.4383566 -127.78902498 21.50416462 -123 18 C-122.34 18.33 -121.68 18.66 -121 19 C-121.99 20.485 -121.99 20.485 -123 22 C-123.07905064 24.33199388 -123.08798769 26.66832622 -123 29 C-117.37031831 29.93932397 -112.77020025 29.96364537 -107.1875 28.625 C-106.04414185 28.35816406 -106.04414185 28.35816406 -104.87768555 28.0859375 C-83.42933464 22.81414194 -62.83928661 14.37925589 -42.32568359 6.30810547 C-11.11388284 -5.96856671 -11.11388284 -5.96856671 0 0 Z " fill="#000000" transform="translate(331,109)"/>
<path d="M0 0 C2.87029869 1.79393668 4.49131638 2.98263276 6 6 C6.99275065 14.43590608 4.95805366 21.83141921 2.43823242 29.82449341 C1.36894125 33.22172491 0.35137964 36.63438688 -0.66796875 40.046875 C-0.87114716 40.72396011 -1.07432556 41.40104523 -1.28366089 42.09864807 C-3.09717302 48.19935963 -4.62240951 54.34860779 -6 60.5625 C-6.19489014 61.44075439 -6.38978027 62.31900879 -6.59057617 63.22387695 C-8.47544259 71.85043809 -8.47544259 71.85043809 -9.3125 80.625 C-9.36857422 81.72714844 -9.36857422 81.72714844 -9.42578125 82.8515625 C-8.79385601 86.04017608 -7.6393417 87.13843533 -5 89 C-1.63524988 89.26499878 -1.63524988 89.26499878 2.125 88.75 C3.5582083 88.62191334 4.99183003 88.49838889 6.42578125 88.37890625 C7.1729541 88.3133252 7.92012695 88.24774414 8.68994141 88.18017578 C21.54953499 87.17717641 33.593541 86.77475754 44.3125 95 C52.66051705 103.07374955 55.43476175 113.71878669 56 125 C56.39784121 150.01426619 47.8121544 175.22186639 36 197 C35.67241699 197.61891113 35.34483398 198.23782227 35.00732422 198.87548828 C27.62498541 212.79047966 18.39072029 225.80463986 4 233 C-2.671441 235.01504748 -8.94886121 234.84884936 -15.25 231.8125 C-26.13656479 225.70581756 -32.36363693 216.84148998 -36 205 C-37.18777847 200.31785392 -37.69746674 196.62114676 -35.375 192.25 C-31.57866715 186.23660877 -25.69260331 182.09342584 -20.0625 177.9375 C-19.37220703 177.42123047 -18.68191406 176.90496094 -17.97070312 176.37304688 C-14.05418264 173.45885865 -10.08820593 170.66789025 -6 168 C-13.26601562 166.38358616 -20.38762709 165.67509653 -27.80834961 165.42993164 C-40.07887801 164.92112199 -40.07887801 164.92112199 -43 162 C-43.58583361 157.99556771 -44.20106081 153.69136728 -41.765625 150.26171875 C-35.17391679 144.73055765 -27.90734411 145.6603186 -19.81152344 146.22070312 C-16.49343453 146.52117175 -13.18558596 146.876162 -9.875 147.25 C-8.75996094 147.35957031 -7.64492188 147.46914063 -6.49609375 147.58203125 C1.2833845 148.45252646 9.69043085 149.65828664 15 156 C16.0625 159.375 16.0625 159.375 16 163 C12.74485107 166.90617872 9.30638421 168.35454329 4.625 170.1875 C-5.87755185 174.33358834 -19.37130006 181.53907825 -27 190 C-28.05634348 192.94267113 -28.32043513 194.30258237 -27.00390625 197.16796875 C-26.52824219 197.83441406 -26.05257812 198.50085938 -25.5625 199.1875 C-23 202.83923706 -23 202.83923706 -23 205 C-22.34 205 -21.68 205 -21 205 C-21 205.66 -21 206.32 -21 207 C-20.34 207 -19.68 207 -19 207 C-19 207.66 -19 208.32 -19 209 C-18.34 209 -17.68 209 -17 209 C-17 209.66 -17 210.32 -17 211 C-16.21625 211.309375 -15.4325 211.61875 -14.625 211.9375 C-12 213 -12 213 -10 214 C-5.61462415 214.78310283 -3.34542991 214.84515138 0.46875 212.44921875 C7.32119104 206.66482793 11.7700879 199.81899253 16 192 C16.33773437 191.39269043 16.67546875 190.78538086 17.0234375 190.15966797 C28.01745897 170.24333678 38.24782104 141.90846245 33.3515625 118.9609375 C32.66110752 116.58878028 31.8891358 114.30346063 31 112 C30.67 111.01 30.34 110.02 30 109 C22.87512516 105.52890713 14.98726563 106.76522525 7.4375 108 C-2.1146796 109.55656854 -10.43792615 110.03819929 -18.98046875 104.78125 C-24.46211692 100.57358829 -27.23844271 95.31263903 -28.43457031 88.5390625 C-29.16287336 81.48379221 -28.60914111 75.1530855 -27.375 68.1875 C-27.19549805 67.11959229 -27.01599609 66.05168457 -26.83105469 64.95141602 C-24.97104512 54.20883095 -22.580965 43.58992242 -20 33 C-26.38723018 43.31999114 -32.17070604 53.81649774 -37.5625 64.6875 C-37.94141388 65.44703979 -38.32032776 66.20657959 -38.71072388 66.98913574 C-44.74881357 79.11152619 -50.45148612 91.36859033 -55.9375 103.75 C-56.27629181 104.51444427 -56.61508362 105.27888855 -56.96414185 106.0664978 C-57.92698733 108.24560949 -58.88493858 110.42677329 -59.83984375 112.609375 C-60.25585342 113.55720604 -60.25585342 113.55720604 -60.68026733 114.52418518 C-61.46946811 116.3426145 -62.23486078 118.17131604 -63 120 C-63.28288376 120.6705542 -63.56576752 121.3411084 -63.85722351 122.03198242 C-65.50284745 126.1218468 -66.3489638 129.37112491 -66.15234375 133.84375 C-66.12172852 134.91334961 -66.09111328 135.98294922 -66.05957031 137.08496094 C-66.01928711 138.21192383 -65.97900391 139.33888672 -65.9375 140.5 C-65.70287361 153.7293188 -67.22001697 166.0874836 -70 179 C-70.23227295 180.10504883 -70.23227295 180.10504883 -70.46923828 181.23242188 C-73.13792922 193.53854487 -77.5931404 209.51892389 -88.125 217.3125 C-92.65586418 219.67474543 -97.01378596 219.86285174 -102 219 C-110.39436492 216.02842221 -116.28018958 209.65614277 -120.4375 201.9375 C-124.03854652 192.91150028 -122.99246282 182.31290268 -119.23828125 173.52734375 C-118.82964844 172.69332031 -118.42101562 171.85929688 -118 171 C-117.62230469 170.21753906 -117.24460937 169.43507813 -116.85546875 168.62890625 C-111.54393784 158.85633125 -103.38181295 150.22673909 -95.453125 142.5 C-89.73256511 137.18741057 -89.73256511 137.18741057 -86.30078125 130.390625 C-86.45418687 127.63808988 -87.03045466 125.581513 -88 123 C-88.35835937 121.93910156 -88.71671875 120.87820313 -89.0859375 119.78515625 C-90.99126075 114.01203924 -90.99126075 114.01203924 -94.90625 109.62890625 C-98.87890924 108.43562614 -102.21219631 109.54831356 -106 111 C-119.54120476 118.4115372 -126.685005 134.51448495 -131.27734375 148.5234375 C-132.53471174 152.83247158 -133.31506294 157.20301417 -134.0625 161.625 C-134.23241455 162.62354004 -134.4023291 163.62208008 -134.57739258 164.65087891 C-136.6962615 177.62856958 -137.90111857 190.68092872 -138.1640625 203.828125 C-138.19089111 204.9620166 -138.21771973 206.0959082 -138.24536133 207.26416016 C-138.28915123 209.45620306 -138.31086796 211.64883112 -138.30737305 213.84130859 C-138.44443774 221.22125498 -138.44443774 221.22125498 -141.265625 225.17578125 C-145.34038873 227.89423076 -148.27421624 227.86528435 -153 227 C-156.4375 225.5625 -156.4375 225.5625 -159 223 C-161.49003476 216.23137443 -161.51971479 208.64868804 -161.9296875 201.53125 C-162.08699013 199.07680692 -162.24455101 196.62238037 -162.40234375 194.16796875 C-162.63894833 190.36043259 -162.87185283 186.55273396 -163.09912109 182.74462891 C-163.90072443 169.47905006 -164.87558567 156.32929096 -166.9609375 143.1953125 C-167.12028778 142.18907837 -167.27963806 141.18284424 -167.44381714 140.14611816 C-168.62884665 133.16194648 -170.45045538 126.67083304 -173.046875 120.0859375 C-174.32453534 115.94925034 -174.62324372 112.14855072 -173.40625 107.953125 C-168.03086104 97.85110091 -160.71971738 89.36654252 -153 81 C-151.87007112 79.71264282 -150.74479447 78.42118214 -149.625 77.125 C-146.73521401 73.8100501 -143.78472392 70.55345554 -140.8125 67.3125 C-140.34457031 66.80114502 -139.87664063 66.28979004 -139.39453125 65.76293945 C-136.98035213 63.13140265 -134.54923152 60.51943457 -132.08203125 57.9375 C-119.40952412 44.60111485 -105.69861977 28.99795738 -98.75 11.75 C-97.6026545 8.99432197 -97.23495703 8.16969119 -94.75 6.375 C-89.19414843 5.61738388 -85.37301649 6.22611798 -80.5625 8.9375 C-78 11 -78 11 -77 13 C-76.54734932 19.78976024 -77.59138905 23.73427074 -81.734375 29.3515625 C-91.15537217 39.97757093 -102.65287482 48.16157216 -114.19921875 56.3125 C-125.74641164 64.46563967 -137.07564679 72.58077327 -147.27734375 82.3984375 C-149.53914802 84.55964502 -151.84020294 86.57241319 -154.25 88.5625 C-161.79632304 95.147508 -167.5892358 102.19622559 -170 112 C-168.96875 112.0825 -167.9375 112.165 -166.875 112.25 C-161.49935084 113.29044822 -158.45446148 115.33164713 -154.875 119.4375 C-146.803696 133.07867081 -146.1442662 151.6219293 -144 167 C-143.84144531 166.36578125 -143.68289063 165.7315625 -143.51953125 165.078125 C-143.00865474 163.03461897 -142.4953255 160.99172559 -141.98046875 158.94921875 C-141.25192474 156.04032747 -140.55348169 153.12524714 -139.86328125 150.20703125 C-135.04335781 130.0295276 -128.50760629 108.03885439 -109.75 96.5 C-103.11635316 92.77128348 -97.63627761 90.93601938 -90 92 C-83.18275259 94.24238388 -77.73534177 97.81507208 -74 104 C-72.14157488 107.93374866 -70.51333126 111.92204099 -69 116 C-64.1860492 106.86866638 -59.90571209 97.59219382 -55.9375 88.0625 C-46.56978388 65.63282741 -36.75137808 43.35955486 -25.09130859 22.01513672 C-24.11500642 20.21236308 -23.17418284 18.39048053 -22.23828125 16.56640625 C-17.07027488 6.56950154 -12.17643176 -1.577258 0 0 Z M-86 150 C-101.05518688 168.37150891 -101.05518688 168.37150891 -106.31640625 190.84765625 C-105.799103 194.36659565 -104.38139167 196.42552252 -102 199 C-99.41977443 199.68622473 -99.41977443 199.68622473 -97 200 C-90.50274952 188.68306782 -88.07675744 176.57102192 -86.1875 163.8125 C-86.05134277 162.90330811 -85.91518555 161.99411621 -85.77490234 161.05737305 C-85.65711426 160.19926025 -85.53932617 159.34114746 -85.41796875 158.45703125 C-85.31250732 157.69366455 -85.2070459 156.93029785 -85.09838867 156.14379883 C-84.9947692 153.88602557 -85.3423621 152.15174239 -86 150 Z " fill="#000000" transform="translate(956,149)"/>
<path d="M0 0 C1.44096586 0.42594588 2.87768712 0.86626633 4.3125 1.3125 C5.11300781 1.55613281 5.91351562 1.79976562 6.73828125 2.05078125 C9.15143168 3.06355423 10.37126886 3.97035042 12 6 C13.59213815 10.77641446 13.90036572 14.79248209 11.99707031 19.45898438 C10.61593524 22.10793061 9.14960509 24.68104043 7.625 27.25 C6.61697626 29.00508702 5.60915605 30.76029097 4.6015625 32.515625 C4.15119629 33.28165039 3.70083008 34.04767578 3.23681641 34.83691406 C2.08016348 36.85980095 1.01992316 38.90544059 0 41 C0.91136719 40.50371094 1.82273437 40.00742188 2.76171875 39.49609375 C34.400023 22.72197969 34.400023 22.72197969 49 26 C53.81624159 27.80215576 56.34474376 29.94761877 59.0625 34.3125 C61.83296613 45.20966678 55.34030682 54.89177871 50 64 C48.1808727 66.84819093 46.26848485 69.61936441 44.3125 72.375 C43.79284668 73.11032959 43.27319336 73.84565918 42.73779297 74.60327148 C38.93382153 79.89855286 34.89093346 84.72259277 30.3515625 89.41015625 C28.36482069 91.59821243 26.61284349 93.79441105 24.85302734 96.16186523 C24.04954361 97.24056129 24.04954361 97.24056129 23.22982788 98.34104919 C22.82398468 98.88850296 22.41814148 99.43595673 22 100 C22.74167419 99.99333817 23.48334839 99.98667633 24.24749756 99.97981262 C59.86852294 99.67502745 95.33110433 99.44810172 130.83618164 102.79754639 C132.90776432 102.99137014 134.97995693 103.17541371 137.05273438 103.35595703 C156.79699934 105.11026511 176.00176723 108.5264488 195.0625 114 C195.86550537 114.22469971 196.66851074 114.44939941 197.49584961 114.6809082 C203.90131565 116.62297282 209.18217757 119.27326635 213 125 C213.60139317 128.41174974 213.63594724 131.59197505 213 135 C210.68437668 138.2360288 207.7549513 139.74834957 204 141 C202.51508785 141.09132475 201.0267529 141.13159227 199.5390625 141.140625 C184.31128089 141.40608763 169.55633734 143.07102704 154.50634766 145.27246094 C153.73027161 145.38478561 152.95419556 145.49711029 152.15460205 145.61283875 C150.70084795 145.82455041 149.2477713 146.04099484 147.79559326 146.26325989 C143.49530691 146.89422956 139.34355482 147.09559066 135 147 C138.48161348 145.00633865 141.91722642 144.24043258 145.828125 143.4140625 C146.49044128 143.27213974 147.15275757 143.13021698 147.83514404 142.98399353 C149.24573547 142.68207316 150.65682376 142.38246632 152.06835938 142.08499146 C155.69908861 141.31946463 159.32610486 140.53678863 162.953125 139.75390625 C163.6584436 139.60197311 164.36376221 139.45003998 165.0904541 139.29350281 C172.440104 137.70263839 179.73106325 135.92483358 187 134 C152.74031826 119.20583794 110.03109087 120.20609162 73.33282471 118.1328125 C71.31655844 118.01802232 69.30058239 117.89815555 67.28466797 117.77734375 C46.88514615 116.56962525 26.42627716 116.90417812 6 117 C5.67 117.66 5.34 118.32 5 119 C4.34 119 3.68 119 3 119 C2.73590332 119.58934326 2.47180664 120.17868652 2.19970703 120.78588867 C0.95422948 123.08447149 -0.34552214 124.58939517 -2.1953125 126.42578125 C-2.82469727 127.05395752 -3.45408203 127.68213379 -4.10253906 128.3293457 C-4.76995117 128.98378662 -5.43736328 129.63822754 -6.125 130.3125 C-6.80788086 130.98821045 -7.49076172 131.6639209 -8.19433594 132.36010742 C-12.04419471 136.14800495 -15.93076378 139.85392255 -20.05859375 143.33984375 C-22.53444997 145.45702462 -24.91661268 147.66781829 -27.3125 149.875 C-31.79275314 153.95975494 -36.38141493 157.85997345 -41.10693359 161.6574707 C-42.91186596 163.11893282 -44.70626999 164.59361385 -46.48413086 166.08789062 C-53.37105807 171.85817965 -60.56635177 176.99392406 -68.0625 181.9375 C-68.65160156 182.32741119 -69.24070312 182.71732239 -69.84765625 183.11904907 C-90.48907157 196.75379336 -115.05861184 212.80271279 -141 210 C-144.02867064 208.95719424 -146.26600153 207.71545002 -149 206 C-149 205.34 -149 204.68 -149 204 C-149.66 204 -150.32 204 -151 204 C-154.35125955 198.69383905 -154.81514228 194.09504114 -154 188 C-149.81662541 173.60719933 -138.38310169 161.20335881 -127 152 C-128.29910431 155.50139542 -129.85241413 158.49156386 -131.875 161.625 C-137.55289201 171.03248774 -139.69112495 178.99959453 -139 190 C-112.68670998 192.2050243 -84.63359133 172.67166889 -65.42553711 156.5402832 C-64.226117 155.52603559 -63.02689525 154.51155338 -61.82788086 153.49682617 C-59.915483 151.93079021 -57.95206204 150.46044309 -55.9609375 148.99609375 C-52.18532983 146.19603036 -48.73215827 143.15771283 -45.3125 139.9375 C-44.77044922 139.43412109 -44.22839844 138.93074219 -43.66992188 138.41210938 C-41.12211936 136.03641415 -38.65062609 133.63781407 -36.23046875 131.12890625 C-34 129 -34 129 -32 129 C-32 128.34 -32 127.68 -32 127 C-30.35546875 125.37890625 -30.35546875 125.37890625 -28.1875 123.5625 C-25.68709592 121.45378035 -23.29718742 119.3274297 -21 117 C-57.45897697 117.65593933 -57.45897697 117.65593933 -93 125 C-93.5534764 127.07553648 -94 128.84365964 -94 131 C-93.401875 131.268125 -92.80375 131.53625 -92.1875 131.8125 C-90.02775192 132.98493467 -88.64209744 134.19369282 -87 136 C-91.44084528 134.51971824 -95.62922698 132.28016085 -99 129 C-100.01958939 126.28810244 -100.14283835 125.3877041 -99.125 122.625 C-91.26951404 112.92116441 -77.94878859 109.86058934 -66.25 107.4375 C-65.24066406 107.22770508 -64.23132812 107.01791016 -63.19140625 106.80175781 C-54.50908762 105.1024741 -45.79790042 104.08536021 -37 103.25 C-36.33151031 103.18470093 -35.66302063 103.11940186 -34.97427368 103.05212402 C-22.84854323 101.88125445 -22.84854323 101.88125445 -16.96484375 102.08984375 C-9.88325699 102.31157962 -5.62287555 101.32932168 -0.39233398 96.48828125 C2.57821807 93.46343092 5.30210126 90.26736672 8 87 C8.80824219 86.08347656 9.61648438 85.16695313 10.44921875 84.22265625 C26.82208688 65.76147158 26.82208688 65.76147158 37 44 C13.35945158 47.50424058 -10.80477796 63.62775277 -27.78515625 79.9375 C-32.80050872 84.60788114 -37.9227696 88.13353265 -45 88 C-48.5680276 85.85918344 -50.44054049 83.81435367 -52 80 C-52.43228566 75.96533381 -51.89349292 72.38928869 -49.68359375 68.953125 C-47.87726213 66.85761268 -45.98958499 64.92252033 -44 63 C-38.16520767 57.35616451 -33.03248546 51.66966751 -28.25 45.09375 C-26.05635238 42.07748452 -23.78300274 39.13637853 -21.5 36.1875 C-14.33839705 26.60948207 -8.22014226 16.64127457 -4.0703125 5.390625 C-3.0026284 3.00587074 -1.96682643 1.68585123 0 0 Z " fill="#000000" transform="translate(1483,186)"/>
<path d="M0 0 C2.95711611 2.58747659 4.71950034 4.39252117 5.40625 8.328125 C5.79617501 18.92108788 0.96861649 27.17436944 -5.76220703 35.06616211 C-7.63347698 37.06988265 -9.54639187 39.01400621 -11.5 40.9375 C-12.54776611 41.97390625 -12.54776611 41.97390625 -13.61669922 43.03125 C-19.92485214 49.14374593 -26.56456616 54.33948265 -34 59 C-34.88582764 59.5563916 -34.88582764 59.5563916 -35.78955078 60.12402344 C-46.13493038 66.52178722 -57.44294031 72.8254291 -70 72 C-73.82098699 70.9769462 -77.3963658 69.62407499 -81 68 C-80.81824219 69.0725 -80.63648438 70.145 -80.44921875 71.25 C-76.86616157 93.26295665 -74.79189306 115.71159283 -74 138 C-73.93449951 139.81201904 -73.93449951 139.81201904 -73.86767578 141.66064453 C-72.70839501 174.33599143 -72.70839501 174.33599143 -73 189 C-73.01256836 189.88413574 -73.02513672 190.76827148 -73.03808594 191.67919922 C-73.93511532 246.24238465 -82.38348795 307.81107626 -117 352 C-117.73992187 352.96164062 -118.47984375 353.92328125 -119.2421875 354.9140625 C-131.69404286 370.64505414 -145.73089707 382.57696569 -165 389 C-167.1216468 389.14554833 -169.24856706 389.22080412 -171.375 389.25 C-172.49648438 389.27578125 -173.61796875 389.3015625 -174.7734375 389.328125 C-180.56867024 388.7387793 -184.36944221 385.39488574 -188 381 C-210.00816741 340.80326449 -177.74647578 252.4639023 -166 212 C-164.65809633 216.39649569 -165.65015601 220.01440195 -166.66015625 224.390625 C-167.04339114 226.12993465 -167.42609839 227.86936062 -167.80834961 229.60888672 C-168.01313934 230.52732361 -168.21792908 231.4457605 -168.42892456 232.39202881 C-175.41816374 263.91952022 -180.82759161 295.67955247 -182 328 C-182.03319336 328.89847656 -182.06638672 329.79695313 -182.10058594 330.72265625 C-182.78954197 350.69159693 -182.78954197 350.69159693 -176 369 C-172.92716006 370.53641997 -170.311712 370.60536671 -167 370 C-158.66145338 366.65948132 -152.36760978 361.18628756 -146 355 C-145.32324219 354.39671875 -144.64648438 353.7934375 -143.94921875 353.171875 C-116.47302381 327.84311814 -105.16814592 283.42814993 -99 248 C-98.7534668 246.61699707 -98.7534668 246.61699707 -98.50195312 245.20605469 C-93.50385178 216.08621529 -93.44007336 185.46202232 -94 156 C-94.01933594 154.81341797 -94.03867187 153.62683594 -94.05859375 152.40429688 C-94.68659493 117.69799646 -95.79086455 81.05980918 -103 47 C-109.54060419 47.43663434 -114.37464721 49.91822047 -120.125 52.9375 C-122.0759974 53.93650966 -124.0278436 54.93386313 -125.98046875 55.9296875 C-126.97353027 56.43854492 -127.9665918 56.94740234 -128.98974609 57.47167969 C-133.774413 59.90087797 -138.59909726 62.24257005 -143.4375 64.5625 C-144.29424316 64.97943115 -145.15098633 65.3963623 -146.03369141 65.82592773 C-153.36618825 69.3336907 -159.7734588 71.66343074 -168 71 C-170.87472735 69.75011855 -172.44101438 68.74531416 -174.3125 66.25 C-177.0647522 57.24262916 -172.06519969 48.87422137 -167.99511719 41.07421875 C-164.74664315 35.04966445 -161.41156042 29.2644621 -157 24 C-157.72799704 29.67837689 -160.50477887 34.44449474 -163.02929688 39.49804688 C-163.37927734 40.21669922 -163.72925781 40.93535156 -164.08984375 41.67578125 C-164.56732056 42.6335144 -164.56732056 42.6335144 -165.05444336 43.6105957 C-166.39627416 47.00137753 -167.16213999 50.45134812 -168 54 C-154.52291486 49.38649778 -141.92537027 43.27777206 -129.1875 36.9375 C-126.19930444 35.4580633 -123.21004254 33.98081543 -120.220047 32.50502014 C-118.37770342 31.59485435 -116.53652847 30.68231712 -114.69682312 29.76683044 C-106.08377387 25.49601057 -97.39131298 21.49705688 -88.44335938 17.97851562 C-85.18769492 16.67468837 -81.9831295 15.26447842 -78.77246094 13.85424805 C-18.07422611 -12.71738534 -18.07422611 -12.71738534 0 0 Z M-95 40 C-95 40.99 -95 41.98 -95 43 C-93.845 43.598125 -92.69 44.19625 -91.5 44.8125 C-85.02463999 48.51270572 -82.2646522 55.58356922 -79 62 C-78.34 62 -77.68 62 -77 62 C-77 62.66 -77 63.32 -77 64 C-73.56995162 65.04392777 -71.30977288 65.48627762 -67.90625 64.22265625 C-55.15106945 57.03694666 -43.59064489 46.00815942 -33 36 C-31.56140625 34.64068359 -31.56140625 34.64068359 -30.09375 33.25390625 C-22.89435289 26.45636975 -22.89435289 26.45636975 -18 18 C-18.11310085 15.15981613 -18.11310085 15.15981613 -19 13 C-44.84861081 12.21571851 -72.32507087 29.04964751 -95 40 Z " fill="#000000" transform="translate(765,209)"/>
<path d="M0 0 C3.67711293 2.03414758 4.77325472 3.53778847 6.625 7.3125 C7.05553498 11.54609397 6.14837529 12.9772328 3.62646484 16.29467773 C0.85858809 19.19675206 -2.38790169 20.72889616 -6 22.375 C-7.04800781 22.88740234 -7.04800781 22.88740234 -8.1171875 23.41015625 C-11.7139459 25.12709941 -15.01374526 26.45500423 -19 27 C-18.51015625 27.75796875 -18.0203125 28.5159375 -17.515625 29.296875 C-15.1499202 34.03385096 -15.64223642 39.07734801 -15.75 44.25 C-15.75515625 45.25546875 -15.7603125 46.2609375 -15.765625 47.296875 C-15.84512363 54.69024725 -15.84512363 54.69024725 -17 57 C-13.80837301 55.27837361 -10.62250766 53.54633715 -7.4375 51.8125 C-6.54224609 51.32974609 -5.64699219 50.84699219 -4.72460938 50.34960938 C-0.6873374 48.14611661 3.16948844 45.95938615 6.828125 43.1640625 C10.04814655 40.96715124 11.38058877 40.37487798 15.1875 40.5625 C16.41533203 40.59537109 16.41533203 40.59537109 17.66796875 40.62890625 C20.22079984 41.03513565 21.87565207 41.51811491 24 43 C24.8203125 44.91796875 24.8203125 44.91796875 25.125 47.1875 C25.25132812 47.92355469 25.37765625 48.65960938 25.5078125 49.41796875 C24.66238185 53.71665846 22.23394657 56.25186248 19 59 C14.49636642 61.84676741 9.80523338 64.2733157 5.0625 66.6875 C3.79939163 67.34297976 2.53701517 67.99987192 1.27539062 68.65820312 C-1.11370995 69.90436773 -3.50624874 71.14272905 -5.90185547 72.37646484 C-8.39318774 73.68200933 -10.83124859 75.03027842 -13.25390625 76.45703125 C-16 78 -16 78 -18 78 C-18.0825 79.134375 -18.165 80.26875 -18.25 81.4375 C-19.64920236 93.77768748 -23.16149966 105.59779633 -28 117 C-26.67548828 116.20335937 -26.67548828 116.20335937 -25.32421875 115.390625 C-14.12729804 108.7602301 -1.37461079 101.52360872 12.1171875 104.4609375 C17.23575403 106.10274186 20.00123308 108.41365059 23 113 C25.82365318 119.67408934 25.50851566 126.00416082 22.9765625 132.7109375 C17.38292182 144.51254935 9.63503397 155.4379729 2 166 C7.97581489 164.14219275 13.47421156 161.94178665 19 159 C19.66 158.67 20.32 158.34 21 158 C21.02117858 160.54748093 20.99323609 163.07897563 20.9375 165.625 C20.94845703 166.33785156 20.95941406 167.05070313 20.97070312 167.78515625 C20.86973446 170.92960884 20.64618798 173.15323313 18.70458984 175.69750977 C14.30888168 179.69644508 9.11790124 182.24021036 3.75 184.6875 C2.49364746 185.26830322 2.49364746 185.26830322 1.21191406 185.86083984 C-16.08265033 193.69189889 -16.08265033 193.69189889 -24 191 C-27.70937055 187.77446039 -29.23641501 185.34200312 -30.0625 180.5 C-30.31979653 175.83747506 -29.100609 173.56570035 -26 170 C-24.93955311 169.00172078 -23.87685505 168.00583008 -22.8125 167.01171875 C-18.27713688 162.49290805 -14.93796993 157.31169652 -11.5 151.9375 C-10.84435059 150.92268555 -10.18870117 149.90787109 -9.51318359 148.86230469 C-4.28122476 140.66282993 0.90754458 132.27736626 4 123 C-7.00908124 125.97388169 -16.39952169 129.83264292 -26 136 C-27.18916016 136.74056641 -27.18916016 136.74056641 -28.40234375 137.49609375 C-36.28469954 142.83673021 -41.32061639 151.36366903 -45 160 C-45.2990625 160.68449219 -45.598125 161.36898437 -45.90625 162.07421875 C-48.94151846 169.90127677 -48.69360765 177.87330903 -47 186 C-46.49293658 190.77969617 -46.53642268 194.08940169 -48.75 198.4375 C-52.18400927 202.348455 -53.73422166 202.85935796 -58.9375 203.4375 C-62.18489941 203.32885095 -62.99540828 203.00316318 -65.8125 201.0625 C-70.58895941 194.37545683 -71.73748976 186.08375876 -73.125 178.125 C-73.29386719 177.20847656 -73.46273438 176.29195312 -73.63671875 175.34765625 C-75.61251701 164.28629748 -76.18130763 153.41427443 -76.1875 142.1875 C-76.19974609 140.99962891 -76.21199219 139.81175781 -76.22460938 138.58789062 C-76.22750977 136.8640918 -76.22750977 136.8640918 -76.23046875 135.10546875 C-76.23457764 134.07574951 -76.23868652 133.04603027 -76.24291992 131.98510742 C-75.8514218 127.17420539 -74.60666563 122.35793007 -71 119 C-67.6632447 118.15064411 -65.18123899 117.65718027 -61.84057617 118.62670898 C-60 120 -60 120 -59.28637695 122.59790039 C-59.13881958 124.20652954 -59.13881958 124.20652954 -58.98828125 125.84765625 C-58.87033203 127.00974609 -58.75238281 128.17183594 -58.63085938 129.36914062 C-58.52580078 130.58794922 -58.42074219 131.80675781 -58.3125 133.0625 C-58.08275575 135.47037201 -57.84985882 137.87794602 -57.61328125 140.28515625 C-57.51829346 141.35644775 -57.42330566 142.42773926 -57.32543945 143.53149414 C-57.2626259 145.94024672 -57.2626259 145.94024672 -56 147 C-55.45472656 146.16597656 -54.90945313 145.33195313 -54.34765625 144.47265625 C-49.9505674 137.87063329 -45.47673976 132.06539041 -39.65234375 126.609375 C-38.83443359 125.81273437 -38.83443359 125.81273437 -38 125 C-38 124.67 -38 124.34 -38 124 C-38.75925781 124.55429687 -39.51851562 125.10859375 -40.30078125 125.6796875 C-41.79158203 126.76636719 -41.79158203 126.76636719 -43.3125 127.875 C-44.29863281 128.59429687 -45.28476562 129.31359375 -46.30078125 130.0546875 C-48.17523115 131.4055935 -50.07752993 132.71835329 -52 134 C-51.39591619 130.60835626 -50.54349602 127.53958903 -49.29296875 124.33203125 C-48.95523438 123.44660645 -48.6175 122.56118164 -48.26953125 121.64892578 C-47.91246094 120.71290527 -47.55539062 119.77688477 -47.1875 118.8125 C-43.51843758 109.00922385 -40.9284076 99.27638263 -39 89 C-39.61294922 89.32162109 -40.22589844 89.64324219 -40.85742188 89.97460938 C-47.89682077 93.6654236 -54.94441605 97.34021975 -62 101 C-63.24475098 101.64606201 -63.24475098 101.64606201 -64.51464844 102.30517578 C-86.83769694 113.84309385 -86.83769694 113.84309385 -96 112 C-99.07153829 109.99409744 -100.51991153 108.60894514 -101.578125 105.0625 C-101.84219373 102.73869518 -101.69526896 101.23425327 -101 99 C-95.66075097 94.17195567 -87.87941491 91.40790529 -81.4375 88.375 C-79.81158936 87.6015625 -79.81158936 87.6015625 -78.15283203 86.8125 C-74.77058777 85.20400918 -71.38549953 83.60162613 -68 82 C-64.79065436 80.47835621 -61.58213752 78.95502803 -58.37524414 77.42822266 C-56.42656007 76.5005799 -54.47659622 75.57561908 -52.52514648 74.65380859 C-50.78492165 73.82627362 -49.05060428 72.98614939 -47.32373047 72.13110352 C-45.86002306 71.41862648 -44.37558211 70.74598617 -42.86767578 70.13256836 C-40.18696508 68.92524905 -38.32648874 67.8041996 -37.19775391 65.02392578 C-36.66087767 62.531547 -36.35977524 60.1009926 -36.125 57.5625 C-36.01824951 56.6746582 -35.91149902 55.78681641 -35.80151367 54.87207031 C-35.49693704 52.25028983 -35.23941456 49.62845533 -35 47 C-34.89631104 45.90824463 -34.89631104 45.90824463 -34.79052734 44.79443359 C-34.45812333 41.19938335 -34.19079018 37.60527643 -34 34 C-35.19496094 34.30035156 -36.38992188 34.60070312 -37.62109375 34.91015625 C-39.22637623 35.29504854 -40.83185586 35.67911925 -42.4375 36.0625 C-43.22060547 36.26166016 -44.00371094 36.46082031 -44.81054688 36.66601562 C-51.12956524 38.1482545 -57.72246873 38.96651876 -63.5 35.5 C-65.64325471 31.92790882 -66.42176727 28.16399326 -66 24 C-63.64860607 20.20654026 -59.09336218 19.58185268 -55.0625 18.375 C-48.11978178 16.18200508 -41.49305501 13.59609548 -34.875 10.5625 C-34.04129883 10.18222656 -33.20759766 9.80195313 -32.34863281 9.41015625 C-28.37946974 7.58753392 -24.43083367 5.72769455 -20.49609375 3.83203125 C-7.47935185 -2.32963418 -7.47935185 -2.32963418 0 0 Z " fill="#000000" transform="translate(562,195)"/>
<path d="M0 0 C3.50117898 0.06765563 4.60456748 0.32316717 7.6875 2.25 C11.09828729 5.87396149 10.87803942 8.40584117 10.87109375 13.19140625 C10.69258334 16.28685279 10.25791213 19.2825101 9.76513672 22.34155273 C8.61086631 29.72561492 8.40566928 34.97226248 12.6875 41.375 C13.19990234 42.2721875 13.19990234 42.2721875 13.72265625 43.1875 C18.4912947 50.84466854 26.58406041 55.70521147 34 60.5 C39.73591775 64.28216685 43.65472812 67.0336792 45.75 73.8125 C45.63845484 80.17057408 42.50983697 83.82644992 38.125 88.0625 C27.70912577 96.89969148 15.31391664 103.84428626 3.14404297 109.96484375 C-0.18791401 111.5174684 -0.18791401 111.5174684 -2.3125 114.375 C-2.511557 115.98710762 -2.65774051 117.6058888 -2.77734375 119.22583008 C-2.85412354 120.2390181 -2.93090332 121.25220612 -3.01000977 122.2960968 C-3.12880493 123.95357185 -3.12880493 123.95357185 -3.25 125.64453125 C-3.33499756 126.79048264 -3.41999512 127.93643402 -3.50756836 129.11711121 C-3.68773763 131.55912653 -3.86581426 134.00129699 -4.04199219 136.44360352 C-4.30666087 140.10668499 -4.57852201 143.76917481 -4.8515625 147.43164062 C-5.36687555 154.41092488 -5.85248864 161.39185602 -6.3125 168.375 C-6.4031221 169.74617477 -6.4031221 169.74617477 -6.49557495 171.14505005 C-7.50937906 187.11727555 -7.43344343 203.0978439 -7.38116455 219.09423828 C-7.37073694 222.63508487 -7.36632632 226.1759392 -7.36132812 229.71679688 C-7.35076185 236.60288276 -7.3338095 243.48893916 -7.3125 250.375 C-5.32371561 246.61385596 -4.37379815 242.85121964 -3.46484375 238.71875 C-3.29242661 237.95647095 -3.12000946 237.19419189 -2.94236755 236.40881348 C-2.56960275 234.76061938 -2.198894 233.11195921 -1.83001709 231.46289062 C-0.83982452 227.04490001 0.17162443 222.63179545 1.18359375 218.21875 C1.49441895 216.86257568 1.49441895 216.86257568 1.81152344 215.47900391 C8.956392 184.41074301 17.11285731 154.12764076 28.6875 124.375 C29.7642312 127.60519359 29.64354603 128.38864209 28.81054688 131.55053711 C28.4835807 132.81948822 28.4835807 132.81948822 28.15000916 134.11407471 C27.90456863 135.03420349 27.65912811 135.95433228 27.40625 136.90234375 C26.89166954 138.89338574 26.37744301 140.88451924 25.86352539 142.87573242 C25.58977081 143.92505951 25.31601624 144.9743866 25.03396606 146.05551147 C19.41149269 167.68937495 14.35801536 189.32318707 10.6875 211.375 C10.57295471 212.05802185 10.45840942 212.7410437 10.34039307 213.44476318 C7.53373844 230.33029094 5.71499252 247.25850137 4.375 264.3203125 C4.2923332 265.3689982 4.2923332 265.3689982 4.20799637 266.43886948 C3.65109246 273.52621761 3.1109709 280.61432971 2.61869431 287.70648003 C2.47678233 289.7310763 2.3294671 291.75520196 2.18017578 293.77926636 C1.99656259 296.28559039 1.8233575 298.79270539 1.66210938 301.30056763 C1.57815918 302.42341156 1.49420898 303.54625549 1.40771484 304.703125 C1.34063324 305.6818457 1.27355164 306.66056641 1.20443726 307.66894531 C0.48317032 311.44462168 -0.95687118 314.35827838 -4.0625 316.6875 C-8.33439878 317.9928024 -11.95697976 317.96033828 -16.0625 316.1875 C-21.78359104 311.57884333 -22.83118944 304.77106932 -23.81494141 297.82983398 C-24.2232167 293.49269418 -24.60522483 289.15612585 -24.9375 284.8125 C-25.00286957 283.96385376 -25.06823914 283.11520752 -25.1355896 282.24084473 C-28.29349859 239.29797455 -27.58940646 195.28181953 -24.3125 152.375 C-24.17237565 150.35032339 -24.03709153 148.32537034 -23.90289307 146.30029297 C-23.54855897 140.95657798 -23.18205433 135.6135809 -22.77734375 130.2734375 C-22.711521 129.39349121 -22.64569824 128.51354492 -22.57788086 127.60693359 C-22.3125 125.375 -22.3125 125.375 -21.3125 122.375 C-22.60607422 123.11943359 -22.60607422 123.11943359 -23.92578125 123.87890625 C-37.10948089 131.28900406 -52.75756066 139.60730461 -68.3125 138.375 C-72.57665725 136.9781209 -75.15676494 135.34609089 -77.3125 131.375 C-78.38176386 127.86170445 -78.49559305 125.94869157 -77.375 122.4375 C-72.61382197 115.36787202 -65.02693971 110.48854321 -58.3125 105.375 C-58.3125 109.64600573 -60.62809898 111.16681342 -63.3125 114.375 C-64.16529338 116.59235439 -64.16529338 116.59235439 -64.3125 118.375 C-59.02014226 117.81971376 -54.47305661 116.5149084 -49.5625 114.4375 C-48.84384766 114.13610107 -48.12519531 113.83470215 -47.38476562 113.52416992 C-41.41935428 110.96198735 -35.59185151 108.14352315 -29.8125 105.1875 C-28.98137695 104.77185791 -28.15025391 104.35621582 -27.29394531 103.92797852 C-26.52663086 103.52506592 -25.75931641 103.12215332 -24.96875 102.70703125 C-24.28619141 102.35358643 -23.60363281 102.0001416 -22.90039062 101.63598633 C-20.39242728 99.6443457 -20.41395171 97.11298708 -19.99137878 94.03907776 C-19.89907486 93.17612595 -19.80677094 92.31317413 -19.71166992 91.42407227 C-19.60438065 90.43590515 -19.49709137 89.44773804 -19.3865509 88.42962646 C-19.27316879 87.36101379 -19.15978668 86.29240112 -19.04296875 85.19140625 C-18.79363518 82.89101258 -18.54411637 80.59063899 -18.29443359 78.2902832 C-18.1647821 77.08796051 -18.03513062 75.88563782 -17.90155029 74.6468811 C-14.19808692 40.4355823 -14.19808692 40.4355823 -12.1875 25.1875 C-11.9867688 23.56726929 -11.9867688 23.56726929 -11.78198242 21.91430664 C-8.79214082 0.14776707 -8.79214082 0.14776707 0 0 Z M5.6875 37.375 C2.53399486 55.26875265 0.66908154 73.32277704 -1.3125 91.375 C3.15459386 89.65574403 7.09320053 87.51502592 11.1875 85.0625 C12.16396484 84.49499023 12.16396484 84.49499023 13.16015625 83.91601562 C17.76566644 81.1666656 22.07922262 78.30738545 24.7265625 73.48046875 C24.6630536 70.05733878 22.81248379 67.51861365 21.0625 64.6875 C20.31355806 63.42722832 19.56485974 62.16681182 18.81640625 60.90625 C18.26557373 59.99359375 18.26557373 59.99359375 17.70361328 59.0625 C13.48817381 52.06175093 9.97292855 44.85459266 6.6875 37.375 C6.3575 37.375 6.0275 37.375 5.6875 37.375 Z " fill="#000000" transform="translate(1100.3125,117.625)"/>
<path d="M0 0 C1.05832031 -0.020625 2.11664062 -0.04125 3.20703125 -0.0625 C10.58854788 -0.09954651 15.07965314 0.70312842 20.6875 5.8125 C23.7793518 9.25770629 24.23700727 11.38163364 24.14453125 16.0390625 C23.19096544 23.86106611 17.66963616 29.40416698 11.875 34.25 C2.8706137 40.51929293 -6.58185189 44.87592098 -16.75 48.875 C-18.16174305 49.43886326 -19.57344516 50.00282905 -20.98510742 50.56689453 C-28.72739416 53.63812368 -36.50422557 56.57892812 -44.4375 59.125 C-45.57276123 59.49165771 -45.57276123 59.49165771 -46.73095703 59.86572266 C-51.7345677 61.3801441 -51.7345677 61.3801441 -55.125 60.25 C-54.02542969 59.693125 -52.92585938 59.13625 -51.79296875 58.5625 C-43.02872928 54.06366281 -34.87450192 49.38604095 -27.125 43.25 C-25.86816406 42.27933594 -25.86816406 42.27933594 -24.5859375 41.2890625 C-12.37246099 31.76554331 -12.37246099 31.76554331 -2.125 20.25 C-2.125 19.59 -2.125 18.93 -2.125 18.25 C-31.70167547 17.78376669 -61.74638852 28.55400096 -89.734375 37.21240234 C-92.84702401 38.1649339 -95.96657395 39.08479289 -99.09375 39.98828125 C-112.35543448 43.84710127 -125.20791207 48.56248872 -138.08203125 53.546875 C-143.40087748 55.60429389 -148.74479575 57.56409151 -154.12182617 59.46337891 C-183.94010848 69.97667507 -183.94010848 69.97667507 -204.3125 93 C-207.22226396 99.57591219 -208.5511428 106.27094162 -209.65698242 113.35839844 C-210.48825948 118.35686297 -211.37124731 121.56927752 -215.125 125.25 C-218.35969305 126.86734652 -221.62840198 126.8284335 -225.125 126.25 C-228.38980416 124.5320572 -230.57140063 122.19902749 -232.4375 119 C-235.44656214 106.96375145 -232.3893851 96.95188091 -228.79736328 85.41821289 C-225.9825164 76.16069891 -223.71226373 66.77633128 -221.4375 57.375 C-221.14950027 56.1888913 -221.14950027 56.1888913 -220.85568237 54.9788208 C-220.29274444 52.65585529 -219.73347789 50.33204149 -219.17578125 48.0078125 C-218.99625412 47.26391266 -218.81672699 46.52001282 -218.63175964 45.75357056 C-217.78842453 42.21642504 -216.99841558 38.6829539 -216.32958984 35.10839844 C-216.09062988 33.85317383 -215.85166992 32.59794922 -215.60546875 31.3046875 C-215.41235107 30.20366699 -215.2192334 29.10264648 -215.02026367 27.96826172 C-213.96427412 24.76199293 -213.07642432 23.8245837 -210.125 22.25 C-205.37566901 21.72229656 -203.26280098 21.54795259 -199.1875 24.0625 C-195.59017938 27.87784005 -195.79379889 31.74279791 -195.83984375 36.73291016 C-196.45062631 44.2662437 -198.39961621 51.59521036 -200.125 58.9375 C-200.5115066 60.621495 -200.89693201 62.30573854 -201.28125 63.99023438 C-202.21672879 68.07979437 -203.1667651 72.16571487 -204.125 76.25 C-203.19341064 75.50959473 -202.26182129 74.76918945 -201.30200195 74.00634766 C-200.05169197 73.01713009 -198.80127958 72.02804196 -197.55078125 71.0390625 C-196.94012817 70.5531665 -196.3294751 70.06727051 -195.70031738 69.56665039 C-177.72046141 55.37046414 -157.29961295 46.15436475 -136.22265625 37.51953125 C-133.4876087 36.39861012 -130.75878985 35.26402064 -128.03125 34.125 C-105.42934804 24.77465601 -82.23730724 17.54937784 -58.75 10.8125 C-57.69164948 10.50745544 -56.63329895 10.20241089 -55.5428772 9.88812256 C-43.81906312 6.51962209 -32.16551497 3.27213869 -20.125 1.25 C-19.37959961 1.12214111 -18.63419922 0.99428223 -17.86621094 0.86254883 C-11.95030208 -0.0134087 -5.96668683 0.02928435 0 0 Z " fill="#000000" transform="translate(1601.125,131.75)"/>
<path d="M0 0 C3.69004237 3.77790052 5.36904689 6.7495693 6.0625 12 C4.66583347 23.77190365 -3.72264267 33.27568035 -11.51953125 41.62109375 C-13.41698998 43.55079646 -13.41698998 43.55079646 -14.375 45.6875 C-15.035 45.6875 -15.695 45.6875 -16.375 45.6875 C-16.64070801 46.28296631 -16.90641602 46.87843262 -17.18017578 47.49194336 C-18.40763778 49.74747375 -19.60879368 51.0903753 -21.4921875 52.81640625 C-22.40291016 53.65655273 -22.40291016 53.65655273 -23.33203125 54.51367188 C-23.96496094 55.08666016 -24.59789062 55.65964844 -25.25 56.25 C-25.87519531 56.82685547 -26.50039062 57.40371094 -27.14453125 57.99804688 C-30.11672667 60.7220357 -33.07579237 63.35815994 -36.375 65.6875 C-35.22 65.213125 -34.065 64.73875 -32.875 64.25 C-28.36950977 62.75294522 -23.90223846 62.16729707 -19.1875 61.8125 C-18.51074219 61.7513501 -17.83398438 61.6902002 -17.13671875 61.62719727 C-12.39488718 61.34303604 -9.40777614 62.22744536 -5.375 64.6875 C-3.80581508 66.25668492 -4.09241057 67.82835159 -4 70 C-3.92652344 71.16982422 -3.92652344 71.16982422 -3.8515625 72.36328125 C-4.375 74.6875 -4.375 74.6875 -6.15625 76.83203125 C-10.93903963 79.58910051 -15.84555578 80.17793634 -21.25 81.0625 C-31.18825406 82.80645737 -40.86903982 84.94905826 -50.54833984 87.80810547 C-57.23513824 89.69260062 -64.85144779 91.35997712 -71.57983398 88.87231445 C-74.65948074 86.83973922 -75.29284799 84.10482212 -76.375 80.6875 C-76.47761813 75.76182975 -74.56205408 73.01151143 -71.3515625 69.51953125 C-68.28673514 66.67881182 -64.89027342 64.36368151 -61.48046875 61.95703125 C-46.77213593 51.20792261 -30.54754626 37.570164 -21.375 21.6875 C-20.99085937 21.02234375 -20.60671875 20.3571875 -20.2109375 19.671875 C-19.1161872 17.43199889 -19.1161872 17.43199889 -19.375 13.6875 C-40.58323806 11.97408759 -67.63043224 21.47606452 -84.4453125 34.26171875 C-90.41410457 39.6186472 -93.2158905 46.84646516 -94.375 54.6875 C-94.73868576 61.84756347 -93.37188364 68.22321987 -91.796875 75.17773438 C-88.85127516 88.84321363 -88.85127516 88.84321363 -92.25 95.1875 C-94.4794333 97.81036271 -95.23962827 98.54683448 -98.58203125 98.9609375 C-102.97844189 99.13231183 -105.56443242 99.22212968 -109.3125 96.75 C-114.3709482 89.23897086 -115.27273736 80.20698756 -116.6875 71.4375 C-118.94760602 58.0841647 -122.08588688 45.1646056 -126.52734375 32.3671875 C-127.69143649 28.68715239 -128.00553376 25.50108974 -127.375 21.6875 C-125.35997111 17.93537724 -123.92033858 16.05105905 -120.375 13.6875 C-117.5 13.25 -117.5 13.25 -114.375 13.6875 C-109.63153275 17.48520639 -108.19250338 21.10753027 -106.6875 26.75 C-105.01777278 32.90524121 -105.01777278 32.90524121 -102.375 38.6875 C-102.0346875 37.99785156 -101.694375 37.30820312 -101.34375 36.59765625 C-90.68312779 15.92852436 -71.96574515 7.07054022 -50.765625 0.04296875 C-35.25780703 -4.86136133 -14.27511909 -10.74098766 0 0 Z " fill="#000000" transform="translate(1571.375,337.3125)"/>
<path d="M0 0 C2.4375 1.5625 2.4375 1.5625 4 4 C5.14926302 9.80810344 4.92707675 14.07288646 2.9375 19.6875 C2.550177 20.81224731 2.550177 20.81224731 2.1550293 21.9597168 C-5.13445912 42.02713293 -15.90009475 61.24789298 -26 80 C-26.4228125 80.79035645 -26.845625 81.58071289 -27.28125 82.39501953 C-39.15338658 104.54216456 -52.30002573 125.98322037 -65.41552734 147.40869141 C-66.91268443 149.8572007 -68.40466923 152.30876552 -69.89453125 154.76171875 C-76.06055133 164.90430385 -82.35478585 174.96076166 -88.72070312 184.97900391 C-89.78582537 186.66165314 -90.8396621 188.35143961 -91.890625 190.04296875 C-138.91782078 265.49194062 -138.91782078 265.49194062 -161.29296875 271.62890625 C-166.33459614 272.43117527 -169.7187399 272.05804293 -174 269 C-176.26469735 266.28236318 -176.93077677 264.4239923 -177.5 260.9375 C-175.61241385 246.07275906 -164.63495468 230.0046931 -156 218 C-155 220 -155 220 -155.57324219 221.79663086 C-156.05519043 222.86989624 -156.05519043 222.86989624 -156.546875 223.96484375 C-156.89621094 224.76043701 -157.24554688 225.55603027 -157.60546875 226.37573242 C-157.98316406 227.22111572 -158.36085938 228.06649902 -158.75 228.9375 C-161.76059186 235.84740732 -164.40473662 242.60528955 -166 250 C-162.58459787 248.77139579 -160.03287455 247.46498808 -157.3125 245.0625 C-156.44044922 244.30646484 -156.44044922 244.30646484 -155.55078125 243.53515625 C-153.77467233 241.87984356 -153.77467233 241.87984356 -152 239 C-151.34 239 -150.68 239 -150 239 C-149.76410156 238.45214844 -149.52820313 237.90429688 -149.28515625 237.33984375 C-147.66882804 234.39704558 -145.63722943 232.09959013 -143.4375 229.5625 C-139.04245369 224.4027522 -135.14602939 219.02655133 -131.34375 213.41015625 C-128.84865057 209.740955 -126.20815695 206.18635487 -123.5625 202.625 C-114.85299593 190.82968823 -107.01117575 178.50161368 -99.17480469 166.11499023 C-95.84016663 160.85327953 -92.44241488 155.64935649 -88.9375 150.5 C-83.10554394 141.87869101 -77.92859078 132.86742495 -72.68652344 123.88037109 C-71.01386685 121.02368285 -69.32633975 118.17638948 -67.6328125 115.33203125 C-61.36199468 104.79738798 -55.21511169 94.21251419 -49.33935547 83.45214844 C-48.39026075 81.71450582 -47.43849322 79.97832186 -46.48486328 78.24316406 C-26.16327047 44.75611496 -26.16327047 44.75611496 -15.58203125 7.734375 C-14.84384275 4.26637534 -13.44999041 2.52613271 -11 0 C-7.14514865 -1.28495045 -3.87605312 -0.98464253 0 0 Z " fill="#000000" transform="translate(554,71)"/>
<path d="M0 0 C2.72471364 2.04017967 3.98887628 4.32095068 5.3984375 7.375 C7.55031615 23.51408987 -7.3448561 39.7519213 -16.41308594 51.87890625 C-18.86906777 55.05604072 -21.45374067 58.10705254 -24.1015625 61.125 C-24.92398438 62.06859375 -25.74640625 63.0121875 -26.59375 63.984375 C-31.02599802 68.96897004 -35.51186801 73.58906118 -40.703125 77.78515625 C-41.16460938 78.22730469 -41.62609375 78.66945313 -42.1015625 79.125 C-42.1015625 79.785 -42.1015625 80.445 -42.1015625 81.125 C-41.26753906 81.19976562 -40.43351563 81.27453125 -39.57421875 81.3515625 C-31.90687179 82.24740373 -25.80487442 83.66965816 -20.1015625 89.125 C-18.3596104 91.92535338 -18.10201618 93.10050117 -18.0390625 96.5 C-19.46395395 101.36139435 -22.01681897 103.2856838 -26.1015625 106.125 C-28.67270792 107.39767847 -31.31751948 108.2902607 -34.0390625 109.1875 C-43.32802779 112.48512241 -51.74918546 117.08264345 -60.30444336 121.94555664 C-61.28936768 122.49977295 -62.27429199 123.05398926 -63.2890625 123.625 C-64.60970703 124.38296875 -64.60970703 124.38296875 -65.95703125 125.15625 C-66.66472656 125.4759375 -67.37242187 125.795625 -68.1015625 126.125 C-68.7615625 125.795 -69.4215625 125.465 -70.1015625 125.125 C-64.0126494 119.47597036 -57.9135519 114.03987168 -51.29296875 109.01171875 C-48.87534416 106.93023448 -47.02123049 104.66560843 -45.1015625 102.125 C-46.79332564 100.43323686 -48.95810072 100.97599344 -51.2734375 100.94921875 C-52.33046875 100.92537109 -53.3875 100.90152344 -54.4765625 100.87695312 C-56.71074865 100.83428638 -58.94518055 100.80287308 -61.1796875 100.78320312 C-69.35391463 100.56991929 -69.35391463 100.56991929 -73.28515625 98.23046875 C-76.07635394 94.99508046 -76.93915146 92.39721981 -77.4765625 88.1875 C-76.9604158 83.97230193 -76.02388962 82.25121041 -73.1015625 79.125 C-70.73828125 78.17578125 -70.73828125 78.17578125 -67.9765625 77.3125 C-61.17199165 75.11368256 -57.02361218 71.18422155 -52.1015625 66.125 C-51.39773438 65.43019531 -50.69390625 64.73539062 -49.96875 64.01953125 C-37.97230368 51.51401064 -28.67864967 36.10086649 -20.1015625 21.125 C-34.29781024 26.81547905 -48.34169176 33.07315647 -61.9140625 40.125 C-69.15279961 43.79619722 -75.90749191 45.89802553 -84.1015625 45.125 C-88.17199517 43.55944897 -91.07180402 42.0717526 -93.1015625 38.125 C-93.5390625 35.125 -93.5390625 35.125 -93.1015625 32.125 C-89.98671427 28.02906726 -87.23826348 27.49335558 -82.26171875 26.78515625 C-74.04036561 25.398595 -66.9672198 22.23954792 -59.5390625 18.5625 C-58.23717181 17.93460177 -56.9343398 17.30865188 -55.63061523 16.68457031 C-53.02234912 15.43472698 -50.41756922 14.1780736 -47.81542969 12.91552734 C-42.46596849 10.3273408 -37.07037384 7.84181292 -31.6640625 5.375 C-30.78999756 4.96950928 -29.91593262 4.56401855 -29.01538086 4.14624023 C-20.28657563 0.15462406 -9.48034218 -3.94720567 0 0 Z " fill="#000000" transform="translate(716.1015625,104.875)"/>
<path d="M0 0 C4.20525762 0.92353033 7.88936331 2.68892849 11.72460938 4.60595703 C12.54872314 5.00790283 13.37283691 5.40984863 14.22192383 5.82397461 C21.25598028 9.31188553 27.944942 13.1748208 34.47460938 17.54345703 C35.26480469 18.05521484 36.055 18.56697266 36.86914062 19.09423828 C41.66411693 22.39467652 45.46304347 25.97225375 47.47460938 31.54345703 C48.25996199 36.88802483 48.74169273 41.56219942 45.75585938 46.23095703 C33.62528844 58.52770017 8.08535533 61.55152081 -8.08789062 65.48095703 C-8.90064453 65.68019775 -9.71339844 65.87943848 -10.55078125 66.0847168 C-16.18022711 67.39689157 -21.76561042 68.08955513 -27.52539062 68.54345703 C-24.81845359 66.73883234 -22.9163285 65.91160188 -19.86914062 64.94970703 C-9.85393252 61.68926391 -0.21646759 58.25070338 9.09960938 53.29345703 C9.87369141 52.88160156 10.64777344 52.46974609 11.4453125 52.04541016 C17.19732308 48.88513364 22.73481839 45.78409206 25.47460938 39.54345703 C25.49764948 37.04480746 25.49764948 37.04480746 24.47460938 34.54345703 C22.17036199 32.48613964 22.17036199 32.48613964 19.09960938 30.79345703 C18.53959229 30.46055664 17.9795752 30.12765625 17.40258789 29.78466797 C11.45166247 26.34405255 5.20260121 23.47630149 -1.07568359 20.68896484 C-5.22938015 18.81021858 -8.64432312 17.21981921 -11.52539062 13.54345703 C-12.76485933 9.74241966 -12.71947279 8.04807067 -11.27539062 4.29345703 C-8.03872819 -0.7927268 -5.43429419 -0.75451902 0 0 Z " fill="#000000" transform="translate(1478.525390625,78.45654296875)"/>
<path d="M0 0 C5.42569749 2.82603624 10.69663111 5.72529346 13.52734375 11.38671875 C13.87442851 16.6797613 14.04086269 20.12030289 10.52734375 24.38671875 C7.87365761 26.54898153 5.80097605 26.46468933 2.52734375 26.13671875 C0.14504911 25.77762287 -1.35949786 25.45037034 -3.47265625 24.26171875 C-7.26541169 22.60238825 -11.73784176 23.81020533 -15.56054688 25.08056641 C-17.6423411 25.92190047 -19.68289229 26.82327221 -21.72265625 27.76171875 C-22.41617188 28.0659375 -23.1096875 28.37015625 -23.82421875 28.68359375 C-27.35893846 30.26812327 -30.48260207 31.87445673 -33.47265625 34.38671875 C-34.13265625 34.05671875 -34.79265625 33.72671875 -35.47265625 33.38671875 C-29.39116003 28.1839178 -23.42939263 23.48325478 -16.37109375 19.67578125 C-14.15757002 18.45347723 -14.15757002 18.45347723 -13.47265625 15.38671875 C-21.57918899 11.66298623 -29.76227533 8.97942281 -38.35253906 6.61865234 C-43.57517183 5.13688689 -47.95867892 3.4413343 -52.47265625 0.38671875 C-53.91015625 -2.86328125 -53.91015625 -2.86328125 -54.47265625 -5.61328125 C-41.36444255 -19.43004705 -14.74560765 -6.85032167 0 0 Z " fill="#000000" transform="translate(597.47265625,145.61328125)"/>
<path d="M0 0 C2.46141247 3.6921187 2.68650207 6.71354805 2 11 C-0.06889652 14.39890142 -2.11279537 16.88937011 -6 18 C-11.36344841 17.60898311 -15.19919995 16.07587621 -19.75 13.375 C-28.42259487 8.46594178 -37.60203807 5.23718818 -47 2 C-48.1875 -4.6484375 -48.1875 -4.6484375 -46.5 -7.8125 C-34.55582234 -18.26365545 -11.46465393 -7.00202805 0 0 Z " fill="#000000" transform="translate(1228,371)"/>
<path d="M0 0 C6.01509392 3.25419763 11.20035168 7.23225371 16.265625 11.78515625 C16.81379883 12.27089111 17.36197266 12.75662598 17.92675781 13.25708008 C21.6691142 16.76948867 23.56695712 19.90505831 25.203125 24.78515625 C25.13733771 28.66660615 24.7750299 30.9158608 22.640625 34.16015625 C19.23231999 36.43235959 16.28706331 37.08649539 12.203125 36.78515625 C7.98488656 34.89125328 5.75211617 32.29420691 3.078125 28.66015625 C-0.62262035 23.65423732 -5.09542093 19.98683143 -9.9296875 16.14453125 C-12.77049919 13.80686059 -15.40291397 11.58329252 -17.796875 8.78515625 C-18.13796851 4.98439995 -16.49510424 1.70681884 -14.234375 -1.27734375 C-9.19703135 -3.21478362 -4.84836923 -2.10592574 0 0 Z " fill="#000000" transform="translate(1308.796875,86.21484375)"/>
<path d="M0 0 C0.66 0.33 1.32 0.66 2 1 C0.02 1.99 0.02 1.99 -2 3 C-1.34 2.01 -0.68 1.02 0 0 Z " fill="#000000" transform="translate(1198,175)"/>
<path d="M0 0 C0.66 0.33 1.32 0.66 2 1 C1.01 1 0.02 1 -1 1 C-0.67 0.67 -0.34 0.34 0 0 Z " fill="#000000" transform="translate(1194,178)"/>
<path d="" fill="#000000" transform="translate(0,0)"/>
<path d="M0 0 C3 1 3 1 3 1 Z " fill="#000000" transform="translate(1615,333)"/>
<path d="M0 0 C2 1 2 1 2 1 Z " fill="#000000" transform="translate(1396,322)"/>
<path d="M0 0 C2 1 2 1 2 1 Z " fill="#000000" transform="translate(375,272)"/>
<path d="" fill="#000000" transform="translate(0,0)"/>
<path d="M0 0 C2 1 2 1 2 1 Z " fill="#000000" transform="translate(1200,174)"/>
<path d="" fill="#000000" transform="translate(0,0)"/>
<path d="" fill="#000000" transform="translate(0,0)"/>
<path d="" fill="#000000" transform="translate(0,0)"/>
<path d="" fill="#000000" transform="translate(0,0)"/>
<path d="" fill="#000000" transform="translate(0,0)"/>
<path d="" fill="#000000" transform="translate(0,0)"/>
<path d="" fill="#000000" transform="translate(0,0)"/>
<path d="" fill="#000000" transform="translate(0,0)"/>
<path d="" fill="#000000" transform="translate(0,0)"/>
<path d="" fill="#000000" transform="translate(0,0)"/>
<path d="" fill="#000000" transform="translate(0,0)"/>
<path d="" fill="#000000" transform="translate(0,0)"/>
<path d="" fill="#000000" transform="translate(0,0)"/>
</svg>
